<svg width="30" height="24" viewBox="0 0 30 24" fill="none" xmlns="http://www.w3.org/2000/svg">
<path d="M0 21.2958C3.36251 21.5929 6.33294 20.797 9.03413 18.807C6.22186 18.5576 4.34824 17.1646 3.29631 14.584C4.22907 14.6866 5.09784 14.7134 6.03207 14.4575C4.56084 14.104 3.39267 13.397 2.49669 12.2889C1.60071 11.1807 1.1586 9.91929 1.16081 8.45765C2.01707 8.87981 2.87995 9.15739 3.83552 9.18052C1.13653 6.93963 0.514933 4.27947 2.01118 1.08438C5.37369 4.97414 9.5807 7.10299 14.6925 7.4413C14.6697 6.83915 14.6189 6.26663 14.6337 5.69557C14.7072 3.20528 16.6463 0.840051 19.1055 0.227058C21.3815 -0.341118 23.3767 0.166577 25.0912 1.75014C25.1417 1.80563 25.2075 1.84564 25.2805 1.86539C25.3536 1.88513 25.4309 1.88377 25.5032 1.86147C26.7933 1.57832 28.0309 1.10011 29.1717 0.443918C28.6891 1.87954 27.824 2.91396 26.636 3.72647C27.7887 3.62744 28.8745 3.29275 30 2.84818C29.2129 3.98526 28.336 4.93655 27.2723 5.71075C27.0031 5.90592 26.9332 6.11122 26.9398 6.43362C26.9987 9.21305 26.3727 11.8501 25.1464 14.3476C23.6751 17.3453 21.536 19.7691 18.6443 21.5315C16.5845 22.7842 14.3438 23.5295 11.9457 23.841C9.85683 24.1208 7.73444 24.0435 5.67236 23.6126C3.70857 23.198 1.83402 22.4481 0.133883 21.397C0.109607 21.3804 0.0882742 21.3616 0 21.2958Z" fill="white"/>
</svg>
